<mxfile host="app.diagrams.net" agent="Mozilla/5.0 (Windows NT 10.0; Win64; x64) AppleWebKit/537.36 (KHTML, like Gecko) Chrome/131.0.0.0 Safari/537.36" version="24.9.2">
  <diagram name="Page-1" id="haS6nwt7jUFGnB01I5Ch">
    <mxGraphModel dx="1114" dy="692" grid="1" gridSize="10" guides="1" tooltips="1" connect="1" arrows="1" fold="1" page="1" pageScale="1" pageWidth="850" pageHeight="1100" math="0" shadow="0">
      <root>
        <mxCell id="0" />
        <mxCell id="1" parent="0" />
        <mxCell id="JevtcrBScPYAY5YOZ9uz-1" value="Prospect&amp;nbsp;" style="whiteSpace=wrap;html=1;aspect=fixed;" vertex="1" parent="1">
          <mxGeometry x="360" y="150" width="80" height="80" as="geometry" />
        </mxCell>
        <mxCell id="JevtcrBScPYAY5YOZ9uz-3" style="edgeStyle=orthogonalEdgeStyle;rounded=0;orthogonalLoop=1;jettySize=auto;html=1;entryX=0.25;entryY=0;entryDx=0;entryDy=0;" edge="1" parent="1" source="JevtcrBScPYAY5YOZ9uz-2" target="JevtcrBScPYAY5YOZ9uz-1">
          <mxGeometry relative="1" as="geometry" />
        </mxCell>
        <mxCell id="JevtcrBScPYAY5YOZ9uz-2" value="Departement" style="whiteSpace=wrap;html=1;aspect=fixed;" vertex="1" parent="1">
          <mxGeometry x="170" y="30" width="80" height="80" as="geometry" />
        </mxCell>
        <mxCell id="JevtcrBScPYAY5YOZ9uz-8" value="Enrichi le module" style="text;html=1;align=center;verticalAlign=middle;resizable=0;points=[];autosize=1;strokeColor=none;fillColor=none;" vertex="1" parent="1">
          <mxGeometry x="250" y="48" width="120" height="30" as="geometry" />
        </mxCell>
        <mxCell id="JevtcrBScPYAY5YOZ9uz-12" style="edgeStyle=orthogonalEdgeStyle;rounded=0;orthogonalLoop=1;jettySize=auto;html=1;entryX=0.5;entryY=1;entryDx=0;entryDy=0;" edge="1" parent="1" source="JevtcrBScPYAY5YOZ9uz-11" target="JevtcrBScPYAY5YOZ9uz-2">
          <mxGeometry relative="1" as="geometry" />
        </mxCell>
        <mxCell id="JevtcrBScPYAY5YOZ9uz-11" value="Responsable secteur" style="whiteSpace=wrap;html=1;aspect=fixed;" vertex="1" parent="1">
          <mxGeometry x="170" y="210" width="80" height="80" as="geometry" />
        </mxCell>
        <mxCell id="JevtcrBScPYAY5YOZ9uz-13" value="Enrichi le module" style="text;html=1;align=center;verticalAlign=middle;resizable=0;points=[];autosize=1;strokeColor=none;fillColor=none;" vertex="1" parent="1">
          <mxGeometry x="160" y="150" width="120" height="30" as="geometry" />
        </mxCell>
        <mxCell id="JevtcrBScPYAY5YOZ9uz-14" value="" style="shape=image;verticalLabelPosition=bottom;labelBackgroundColor=default;verticalAlign=top;aspect=fixed;imageAspect=0;image=data:image/png,iVBORw0KGgoAAAANSUhEUgAAAIEAAAJ2CAIAAAD3ynaPAAAAAXNSR0IArs4c6QAAIABJREFUeAHtnXlUVFf27+uf/u/90X+8vPfW6l+/9bJWXvfPpNMraJxinhpHcABaECiUeQYpkEEoqFQVMxRzgYroD4MTEFECBGdmVNQEkSRGWwQthkAsHImCIuetc2/VpYrhVhVw6xSwa2Uti3vPPWff7+fuU71677s3D8GHtAK8F38MPe5/ca9r4EHPs18VA/Cf8RXgPep78W7kPelHYUGvz1vQd28aNw8MyHMABsCAvALkLdDlB01R29c7h/p+9b/Xxhe/uiT+wCVWSd7oeWYBK4OR8+L/YxnSgW/599KkuB8rJf/zPxc573H8fLlVKxop81xj6cRfvty1Ff0UyPvvX7m4rf/0w42WLr47Plsaf6MjZ+dfzT53D3Bf88//duaX73eu3eW4nud3XjHP9JuN22Fl0Jlt/Un8ubFlzkk+sIvoR0P7l/NifkGdDfV96Ln8U17MLz8F8ninXqCLrrydJV3o0ZmN/+lelf+vf4Qff4NQq/TLVa4W/yHY/3b45dPhscngm1oBVgboXPL/shRQj+5vOVZffV9O70UUg9bHiZs//7rou4DPVQxKKAaO3zEMbP6y7wjCDJavkTc1Hsz0Mf/7erkGUbUJC/5fdgZopMLjq3+ard+8aYlTdqX694BmcCfyww9tAt3X/MdUDHZ+aPahTaDP9g1fnTiTvnbDTr9dq7bnN4wueMknCKCDwYTxeh8Yv4/pfeHCGwgMyDPnjAH5W5szFgAD8qiAATAgrwB5C3jGD1nAiuMUgL3IBPyAvAkL3gLwA/KPADAABuQVIG8B+MEcYzDUU/btxedEjb5bmn9zCFvAfCFqzqwsrssP2k8IfSIjk0XujtKDPV1VfP/Yrofn8uofTLl4Y97q9KIpz6pODBU5/7lkYOpR3Vc8/ER9CN2vjLvcqzlsuNCeR11If3ly0GZR2SBqyk+9M4dTpNgZ3Cnc5Bp4nxKhsyK56no531/aXy9bmnGxpzJCkHAoO2ptZiuqE3+80WOP0H9FwIUH1yQ2X3j86+jtHnzRlbQlll9KsuM9PN2bh7pz/Vwk2UKfkNC796p2Wy31SjzS3l0XKQjO2y90l5cN1aYtsdwUKvG0DT16/YT7Blsr8fnHDVJeSitqkXsF5R1O9TYr7dNm8OvN7O+b3yPqYFsV3+ITr1AvW7cduwIDPF0+KRt4fkKwViiPdwlJ7Rn5vcBnpXtosO12nlvFb10VY8ZrEib0nZWBosBtRYbGQ91RpWZwJt380+Tq2uoTUovA4qo4XuxNhMbOqi+5Ilsac2wIoV+yvwxM87M5eR3h72YhNcpCB/w4t6T+c1fu6Zqa74Rb/1J6SbY0o2SUEdQf+0GdmJfS2Oi9acfRhvpLWb6rcmuPO2r6AS2amoGnuIe6/FQfUhTYulY8Gnyq+PnGBdGOD06cFpvn144i1CZb41bRkraJMZ6Q7FrLsjJAN/PX8Bk/iD3bwPjBmXTzdRcHlcqnvV3PUI0YP62TMUhdHPPNOxUDbzWDv4maXtFbSksqT1SjVD593qX4/U2NbCnmrRZUk4F7WNvLAWVvT9dr1YWqYardTPMS6vsAUhTsdC0+G2RrWav8vcDh48OFdk5n8P7ZeWCrK2YwZryWGmT+YGeARn/KC7YOFCSLXN2khxT494DZi4Q+kbIk0fqg8v46asegGEj628/a2S3Pu03JcyV1meVqUbZM4O919VV3rp+tKFsqiBDdf4+qIxY7SE91dNWFC1wzs0R8YXxXgwaDvjtR676MrOlvkNB7kZNv2gGp70dpN1QOpAcDW9eyugTrzZLsvZabeCUPG723b88rO+5nSe9FjPFkVNdeVQcD7cGG/nWFltXQy2Z//MjQoPKpUvn0bVOiWUgN9Vs1+4tMe8aFwQApm6MdzYMloa4h/rep/2k7bcE4uJBTBhzYOx+nBAbkqQIDYEBeAfIWgB8AA/IKkLcA/MAEGAw8H4T/yCoAfmACfkDehAVvAfgB+UcAGAAD8gqQt8DE/GAeRer1Z6uLgUZMf//k/787DmHiuKPBH3XgXuNCVRRM48hC+MrOQCumn1T1oCPXn47LB999j1rk3kEJSdF+X60KEvd3MdH5Uvz/z3dU8dd95peTHOluVtqHFBURQeK4+HDr6OqO97dO2kfuC3eyOnSEDty3NSZt90xMDvNwax4FBhOeuXExfWVJoDomvCSk8qLP7oB2hNC9om178muymOg8r/QPioEzPvu6TGyefzl98/JahNDQjbAt4dfLBdb5DW/evnz9SOVAwwNP7t7+QR7AS2kFBhMYaMf0U44fClAzWCS6UKPNgInO972m/WBSBo4YTOeP5xJceFmXyqlNrDd9G+/4A3QJh46BwUQGWjH9g4oRrbh8feJ2z8TDqYGqvUgdnZfid8o7qvgWZn5pGWLfTcV4LxL6RMYmiRxjGp8M1uS6SWKTBMvzWunA/c+nXP8eKk/kbwUGkwCYwaFp/1DPYM05eyn7b/K0bwsYGCAdRwwMsACGAgPyzwAwAAbkFSBvAfgBMCCvAHkLwA9MgAHZcDasPvB8EPzABPyAvAkL3gLwA/KPADAABuQVIG8B+AEwIK8AeQt0+YHuvAry9zDXLWBnwJZXMVxob2YhCPB0Md/lvSs4YEXAhYeoOm2J5ebQvTt3uu3YFSpwdHW+NXrv65U2zbhuAq6wcMLRzEIQEeLBy2zFyRZMtYW5ruLM7GdlMHVehareAVWVwM7pTDvqZF4fLxlF975eueEqXemgdRwD3qk+modmtYWZ3cKcv5qVwYS8Cn91XsVYvQOqMoQmgyKEGeBnH1ebUDMYUfkBVW0Cf9eqtjDnZZzRDbAzYMurUOWh6GKALu1d4hAVI3D+fBXeixgGF3sqTapgwYxUnNnFOhjMbHK4Wi8FgIFeMnE6CBhwKq9ekwMDvWTidBAw4FRevSYHBnrJxOkgYMCpvHpNDgz0konTQcCAU3n1mpwHmQ3EFQA/0OtR5XQQMOBUXr0mBwZ6ycTpIGDAqbx6TQ4M9JKJ00HAgFN59ZpcF4MZxPR1NTnQy77JB12L5yW3IqRsPaIuMT/5uLlxlJ3BdGL6dMMDr+Z/T2xyQJVRwI0QHJOz9tmFpvbgF56Z4gt0kgAd8f/p65WLz71FLamL3cpu7fe3kR/LdY9Mx00w1v3DPTo3fPcH/KiU63er+P5zQ2ZWK1kZTCemr2p4MGmTA1xGgSm48PrVy8fFTPGFsSQBKgOjsTqUF1rz0/6d/7fgWMia6Mya2qZMT1765So+bnJAR6rpav+sdzc3TrIyMDymzzQ8MAup6T6majShVUaBYdD30537ZxgGY0kCFIOyoQtxyx237nRL/uG7AP431weePet9rHj+QFXigsoWWCAMDI7pMw0PPK8OT2xyQJVRGOrOdbeOzY52FcZoF19QF6ugK/YP34lYxdt16joa7s71s0w4GO/h6XO1XcXg/gE7y8DoWxjJ3HjUWa1k9wPWSyc5Scs3yQk4xKIAMGARx0inZpeBkYyeZ8sAA/JAgQEwIK8AeQvAD4ABeQXIWwB+YAIMiEe0wQDwAxPwA/ImLHgLwA/IPwLAABiQV4C8BeAHwIC8AuQt0OUHeuZVqBIdprqfxrzV6bOYAaHK2Bi+dy6vfqol59Bxdga68ypwGkRWY1uMwwf8KNnVuxV73AXJcdYB5e2osy5SEJ4Z62ifU1UfY/OFx7+O3qYaiXQwx88OPa6LFAQlyPb6JBT2Kar4Fou8pOGOrmHnjzttya9FA43em+yae5nuFmVDtWlLLL8Izsjc9a+lXokF7bj9+xzSeipTWRnok1dBheCvNcbgxvcIve5//Ou14iQr3JXiT6KmNwiNvBp4+aZmrKl7SypzHF1Po7+j83t5OU0aORPniqytw5rPx6zMaLidznS3+EvpJdnSjJJRpBl5nurG5tBxVgb65FVoMnjyXcS29NNPHpzlB+TXZPEoBm/bW34d1GLAHP/tWjr9HTM4clMzZ+LJQZttOxx5kpuoJZVJy/hdzXJBMdAjr4JiUP3gkJ1loPRqY/bWPcLkIAu6Q064b2CyzMU1p+yPf5+1s1ued3sAP5wddWPHH9eFC7wTZPsEqaefKDQZoPsHbJdbmTfQ4wWumVkivjC+C28++HelOmKxg7SocyHsRXPIn+eyqex70Vy+s7ljOzAgzwoYAAPyCpC3APwAGJBXgLwF4AfAgLwC5C2AWgmDxBM7YC8yAT8gb8KCtwD8gPwjAAyAAXkFyFsAfmD6DKaK6Q/fqUwp+e4FdQOa38nf0dyzgN0PtGL6yVXXK3CpAmlJ03mhT0LGwZi1VBsD5vsbfPtX0pZY0uUS3JpHn58QrBXK411C1GUOpHNPIe4tZmUwLqaPOuiwe69sw6fJ1bXVJ6QWgfsTtjDfk57QvSbGyiW8fDWg+PnGBdEOXkmbKmTP/S3NuRVYGWjH9GPPNpTz/UV9qFe2Yd3FQaXyaW/Xs0cpG5nvQyOYAVMuYUlIZWWQrWWt8vcCB4oBvhY+ExVgZ6AV0z+k6FKF3RUVQp+EQ9lR64PKOx9VMt/vvKcYLLNcLcqWCfy9rr66G2+1WZK913ITMJgoPXNEBwNmnN5foFyC3lKpBwIDtRLk/p11BuRuZc6uDAzIowMGwIC8AuQtAD8ABuQVIG8B+IEJMCAe0QYDwA9MwA/Im7DgLQA/IP8IAANgQF4B8haAHwAD8gqQt4DdDzqq+FY7JNkxAo8NaTeot+wZi3WUP1C1c2eGU19Gv/dfk3D+Vs+Dc3n1D7RPafzVoYrWaRzS9+vUJRs4bIihr3FTjtPJgA4Cv2oQrF71/UOmFMKDaxK6/MGL2zleQXmHU73NSqlgsaIiIkgcFx++e7W5TfNod64f3T4iFQO8R3eloGscXGuM+Xijxx6h/4qACyoeLXLvoISkaL+v6NebIwXBefuF7nJ9O1eoSzZQvSmo/I+StO2eiclhHkxDjCllIHpCTwZUeYKUVqYUgrS/XrY0o5gqKbHjaEP9pSzfVbnlCIf7l9cihIZuhH3pfalCo30ErqSg+X49Lq8Qe5PuYUDF+pWN3rsD2jGqom241AJTIkH/zhXqkg2q/A80PPDk7u0f5AG8lFb10kTFnmJxPRlgP9j6bRlTCkGDgXtY28sBZW9P1+s3Exgw7SMeP3s7CQNc4oLZecYzYEok9L1GY91DWDtXaDCg8j/St/GOP0CXJHOdgZWFKFsagn8PngxeZUohSPrb6fIHb27nOPmmHZD6fpR2A5dC6DwR6ChN3B/F7EV0+wjckmKiH2gxQKg+cbtn4uHUQNVeFK4qkaB/5wq6ZAPdm0LUh4ZPOP89VJ7I34rrmVDlFaZ4EAkfZvcDwsYtkOWBAXnQwAAYkFeAvAXgB8CAvALkLQA/AAbkFSBvAfiBCTCAtAbiCoAfmIAfkDdhwVsAfkD+EQAGwIC8AuQtAD8wdQYsMX2dpusI+uu6foaX65relM6z+wETaMSxzM/PDTIxerr2wWd+OcmR7malfRNrIhw7kzAu6L+stKWKb/GJV6iXrduOXYEBni6flA0gRUWEAL/qjMsu1InHovzqnAFT0oorW/RkQIXjYw5oxOgvV/GdcQj+dZnYPL9p8OmEmgj4RWXNoL/fqhT5Li9xDzXVqT6kKLB1rWhJ28SUWiiuimOi/HS8ehZbh3Cl32zMqycD7Afbvi1hYvSK5w8YBhJz+dHgiTURGAaqoH9v1z261IIqxUHNgCm1gGrEVCML7HzAgIGLfw+YmH7v++HuXD86Ru9ztb2Kb2Hml5Yh9t1crJisJsK9cUH/RWnflzoG4FB7oT2vZID2g9+6KoQ+kbIk0fqg8v46KcOAyRlgTJnHX9j9gOXGmZ8KljFwSi8FgIFeMnE6aNoMOLVqYU0ODMjzBgbAgLwC5C0APwAG5BUgbwH4gQkwIB7RBgPAD0zAD8ibsOAtAD8g/wgAA2BAXgHyFoAfAAPyCpC3gN0PpptXMXxvQjWE7isefvhd8PuVcZd7yd+3KVmgk8FYrQTNvIq0nud14W7h4Xv/h7wV3ZZ7BclTwpzMSvuGC+0XbfS1riyVLc241hizaKNveGasm2NO3c/H3DfYWonPP26gApZUWYTE6GCzw+2a6RSmpIzxbNGTwcS8ijOH1kRlvHj38lWfqsbByNCg8o9Xhfa8U30I4YA+fmte1PQGIWXOlhXnHqoqgdSJeSmNGmURhGUXx9IpjHffprSSngzG51Xg2gfKn27m7V0ZcKbM1wknuYx0t7X2q8tCjGNgu/LcvUkZnLKW1FXHMqF8U1LGeLboZDB5XoVvY3vFHr8weeyOyJoXt3NcPBMzo9yXFeO9COdMqP1g0UZf/8wsP4+cs3+8vRO17svImv4GXD0CtcidfCXp4qBtxxQIe4aqcIXx7tuUVmJnMDNLVeLObJIFcDUwIA+ZSwbk725uWAAMyHMCBsCAvALkLQA/AAbkFSBvAfiBCTCAtAbiCoAfmIAfkDdhwVsAfkD+EQAGwIC8AuQt4MIPhnrKviV/Z3PHAnYG6ph+UpZvxWO9bqopP72ts4rvr9dgGEQpoJMBHdMfU2u40N7MQhDg6WK+y3tXcMCKgAtdDUl0mwG35lEqjtYGDMb00uObTgZ2TvJjRwq+b+lsPpGYGXqsRVnogKP2igI7pzPtCD/yMV3PtdsMAAM9hNcYopPBJH7AvGVPM0hP3KHdZgAYaAisx1edDHBMPyYpK/RYC25vwPQwoKpN0Az253sybQZgL9JD8/FD2BmMHw1/c6EAMOBCVcPmBAaG6cXFaGDAhaqGzQkMDNOLi9HAgAtVDZsTGBimFxejgQEXqho2JzAwTC8uRvOIR7TBAPADLp5sw+YEBobpxcVoYMCFqobNCQwM04uL0cCAC1UNmxMYGKYXF6OBAReqGjYnOwOD8yqGipz/XDKAJqmVYJhZC2q0TgZMPLmjLlIQlCDb65NQ2Keo4lss8pKGO7o63xpFLapaCctLm6t2Wy31Sixob5AtzbjYUxkRJI6LD7eOrn6IqtOWWG4KlXjahi4offW5WZ0MLLb5hfgEpJ2ry/oTVfgAnd/Ly2mq4nuKexD1ere68AFTK0H9jviZdPPltQihoRthW/x+bZQtzSgZxTUX9DFrQY3RyUDtBy2pdPEJzODIzUkKH0yolaDBwDH4IWZQRKUELCh99blZvRmgjrpwgXeCbJ8g9fQThQYDXPiAqZWAqiMWO0iLOlV7kdAnMjZJ5BjT+BuqBgZT8WBnMNVVcHw2FQAGs6nm9OYCBtPTbTavAgazqeb05gIG09NtNq8CBrOp5vTmAgbT0202rwIGs6nm9OYCBtPTbTavgryKQeKJHeAHs/lET28uYDA93WbzKmAwm2pOby5gMD3dZvMqYDCbak5vLmAwPd1m8ypdDPpqc7w9/STxQfauuxpeTb7ytXhecitCytYjRQ1vJh/CdrQpP/XOe7YBiA6atk4YcyV1WVj62aNhrq5uzaMTzhp8QJWQYPB1M72AnYHyiufmlbVv8SKv7te29lPh+7zDqd5mpX2j5SHrhBGBdvLiGMcP+FEp1+9W8f3F/V1Thf7pIgsRIR68zNZ39YkTyius+4e7tKTpfIQg4VB21NrMVoqmKpEgwn4bL6X13tcrbZoRXdC8CNuEq8vjL3VinvS7Cr56BnUiQcf7WyftI/eFO5mVtVXx133ml5Mc6W5W2ocUFcwqTPMGJiFhpooafj07gyupiwW4eUfn9drqmiuNty/6bN5xtKH+UpbvqtzK9M0rKgdHXg1qFm7Pr9EM/V/VCP234tfH1a0RTr97OqG8Ak4S6JVt+DS5urb6hNQiMOkJQi2pY4kEkzFIXezumJwV5ePpc7WdXqtXtoFJJAi/Xi6wzm948/bl60dVfGfcIOB1mdg8/3L6ZvUq/vGeLlTjAHXzBpyQYOwPOwPlFc+15g20TVdkS5MO+HmEtb0cUPb2dL1+OzyguHJkn01ocWU8Uzw/vyZritA/xUCdclGaZTWxvIKoDzNYd3FQqXza2/VsaAQzGJuNYTCifvwZP8AGdtAhbg0Gjljczh/PJbjwsi5VaDNQr9JR4717QvMG02KAUF95It/LRZKdsjd48+Ff3tzOcfJNOyD1/SjthuKkwDr2YJy7pPjGYTvLwOhbD1R70RShf83WCBeK3CaWV8AOp6gQ+kTKkkTrg8rxb8RIZ8Ued7/MA2JHvBehS3uXOETFCJw/X0VtQZMxoGegEwmeDNbkuklikwRfHKqt4luY+aVliH03FeO9iFmlsyV3XEKCsQkgxO4HxreHoxVVXsLR7DOcFhjMUMBZuHyBMJgFpbibAhhwp62+MwMDfZXibhww4E5bfWcGBvoqxd04YMCdtvrODAz0VYq7cRDTh5g+d0/X3JkZ9iLyrIABMCCvAHkLwA+AAXkFyFsAfmDqDDqq+Ot4WXexma/PxS03p3qETzQaR0hiux6ey6sf+Fm+LPToxY4edY7FUO9pWfb1l9Q1HVV859CTxan+zjiwDh+1Aux+gBksWp38zTuEvvX87EsLXklfd66fiyRb6BMSfPc9apF7ByUkRft9tSpI2l8vW5p0LG58joWv/Eikj7x0aCzkixQFDvYnfzgVtFYoj3cJSe/pqqJSItQmLbh/dTLw9Auw/qTyx1P2LnY7N31UcCrQ5uR1hNAv2UtCKi/6UAFxdK9o2x6KQca1xhjN+P4/d+Werqn5TriVV/oHFXbHlfxT9nosK+5DLwcUP9+4INrBK2lTpV8sOPFVN6yTgX9e/X/ZrLLg7blwQbJKk8Ei0YUaXQx4ohql8unzLkXfaw0/wEsrGwQ2lrXK3wscKAbqigwLEoNuBl/3Pb/iudm8Ad37eiW9F9mKsqWCCNH994hK1TqcGqjei7T8AOd7hQu88vaL+EKpYhyDobvxVpsl2XstNwEDdgYL8rE0+k0DA6NLPmFBYDBBEqMfAAZGl3zCgsBggiRGPwAMjC75hAWBwQRJjH4AGBhd8gkLAoMJkhj9AORVQF6F0R86E1wQ9iLyUIABMCCvAHkLwA/mLQNl65FLE9+rJ3+7JmkBux8YENOn3my9uF/0bf07jTfox9+zZoh//DnD/55udQbDV+L0Ct0M9Izp01US6Ah+2VCtqv/BhMIH9ICzQ4/rIgXhmbGO9jn096k6K3gHJSRGB5sdbkd14o83euwN8LRw8DYPDtlhm3vu3SOmOoNf5oFE/lZeyvGx6gkpuBi6V5CqsgOnIs5wcp0M9I3p59dkMRH8v5Reki3NOJNuri5JoCp8wAzYlJ1JF0EYeTWArqeNFUTI0SyvoO6sgHMGhGUX43ixN+kaFSWjOLBq19xbxffXqs6gxaCx0XsTU9lhhjJxerlOBvrG9KkqCaoI/u9vamgG6pIETOED1YDh5jS6CMLb9pbfrqWPFUSYtLMCunfKWlJXHUtlbKgKJWgyGLucYVAdwUtpbPR2Zyo7cCriDCfXzUDPmL5mBD++a6z/wVjhA6qDAh3ij1V01YX7BibLXFxzyv54zNJZwclXki4O2nZMoa5MMp6BtKerYo/77oRsqp5C852I9RtDE4Jtt2NgLXKmssMMZeL0cnYGnC4925PXiSlHme1puZ8PGHCvsa4V5hEDXbdqsueBAXk0wAAYkFeAvAXgB8CAvALkLQA/MAEGxKv/gwHgBybgB+RNWPAWgB+QfwSAATAgrwB5C8APgAF5BchbwO4HVF5F7M03VA/2KQolkL+HuW6BTgZWG7fZ2jSPUlXbtQol0D0lAjxdzHd57woOWBFwYa5rQcp+nQz8D1w94rQltzx/t+ZL+mYhNcpCB9xTQlFg53SmHXVW8f1J3cNcX1c3A1EfUubYfvalhSaDv4maXhXa491JUWDrWgEMZvIc6MUAjdw8tHnjuEIJqp4SwGAm8lPXsjOY8fQwgR4KAAM9ROJ4CDDgWGA9pgcGeojE8RBgwLHAekwPDPQQieMhwIBjgfWYHhjoIRLHQ4ABxwLrMT3USoBaCXo8JvN+COxF5BEDA2BAXgHyFoAfAAN9FRjqKfv20otn87IEA7sfGBrTZ7qs6yEtFfx5oMdAaghusUCXli/SuETdm1zj0NRfh4qc/4ybyZvcRycDA2L6D1F12hLLr4Sp0R5eblQawKKNvs7HTkRoVUwYojsoRHtY89wqfmvN0S5n0DF1DQUVg0tNyds9E5PDPOglPrQOE4mD1geVt6POukiBRs2Fdf9wl5aUpNGDvZr/XbXbaqlX4pH27rpIQXDefqG7vLq90Na14oEqa6SNbsPw3fd55sGSfXZCo7HSycCAmD71nMYcG8LdEZigf69sg1bFBGUJ00FhrVvxd77mTDmDcoRQS+rUNRRUDE6/e/rk7u0f5AG8lFbsB0cUCA3dCNsSV56jUXOhSdVTYXhAa3DJAGpJZUo2fHHkqDYDT3EPQmc9efK7714PmhAD/WP60v761MUxuGkIxaD7mAOvZKBXtkGrYoI2gzJfD6acwRuKAUsNBXovKs2y4h1/gC5JJjIYK5qgrrnQm75NazDFgOnKMPhAxeCFZhuGkaGeH4oyHVxMi4GeMX3MYJnlalG2TLA3tI1OSRpAigqhT6RGxYRXvyQ7WcUWyAWW9F7ElDOgtuoOlhoKNIMLRW5/D5VTVVqwH3xqFSbJjHWKrsZ7UbjAO0G2T5B6+omiio/7WgyfcGYGo+qIxQ7SUx24K4NrZpaIL0zofHjK3t5G8rX7BvOxNgz1iTuFcpnAeKk67HuR0R6FBb0QMCCPHxgAA/IKkLcA/AAYkFeAvAXgB8CAvALkLQA/MAEGUKqAuALgBybgB+RNWPAWgB+QfwSAATAgrwB5C8APgAF5BchboMsPOk9Hu4YIkuMCHfeEto2O2duUn3rn/difCKH7lXGXe7WOTPXH5IWpr6QuC0s/ezTM1dWtWWOhqSbRddxksygmGs7O4E7hJtfA+9RVr8qil0dk7n2nAAAUbklEQVRfuBD36RqP7ftvU7Hivt8LfFa6h+Ii624VLxtUAV4zC0FEiAcvsxUpKrQzKnDORFCCLMJ+Gy+l9d7XK22aNTuGqPNi6sQ86XcVfCoroul8RJA4Lj7cOrq64/2tk/aR+8KdzMpwAsRnfjnJke5mpX2aq6Dbcq8geUqY0/LSZjqLYuINm+ARVgZ9x/1WZKjzeXCukfBIEtUIAg0X2n9w4rTYPL92FKE22RoNBriAAsKCTuxBMZb3MBmD1MXujslZUT6ePlfb6ayIXtmG5bWITpsIv14usM5vePP25etHVXzngHaEXpeJzfMvp29W5234x3u64OMjQ4PKP1RlBExQ8gkmsTJAdwo377Bvoy56VRa1KvriuTi6vv1wof3HhwvtnM7gJK3OA1tdx/yAKu+iYqCVUdGSOpb3wDAYUT/+FDYN3jgir8HAEYvb+eO5BBde1sUKbQbqVTpqvHdTDLrbWvsNSv+aIItRD7AzQKjztNjO2zM5LtQ1xP/2kLoRBPYDXsnDRu/t2/PKjvvhDAlmL2IYXOyp1MqoGOms2OPul3mAahbRii7tXeIQFSNw/nwV7WoMDIQQzqqjmhzhnIzYJJFjTOOTwZpcN0lskuCLQ7VVfAszv7QMse+mYrwXMat0tuS6eCZmRrkvK+6jsyiMquV0F9PFgGVe7PJPlcqnb5sSzUJqelhGzvIpNaFZnpbYdDNggJTN0Y7mwRKVixjvFoCB8bReKCvNxA8WikZc3ycw4Fph3fMDA90acT0CGHCtsO75gYFujbgeAQy4Vlj3/FArAWol6H5K5v8I2IvIMwYGwIC8AuQtAD8ABndL828OkZeBqAW6/GA2Y/qNeavTVZGyvtqDWZd/ekvHgvBLse9q9n9d9Qi/oqzx0S8Wpmw9UtQw7kqNSUz/KzuD2Yzpv20S23zh8a+jt1/cztntK8/PCFx/uo9SGbdV2JR5LMc7Mr2nSzNeT7dYGMsQUMf36aIMm0IlnrahqX1dVXx/3Ek+UuCXeYB+b1kzYeBiTyWTWmCaPFgZzG5Mn4oYF6OBRu9NTH2E2uOOHxWcClkTnVlT25TpyUu/rBmvbz7O18wQYOL7fr82ypZmlIzSbtRWxffPr8maKmFAM7VgDjKY3Zj+GAN3pj7Cq0L7jwpOBfC/uT7w7FnvY8XzB+MZ4EorqgwBNQPH4IeYQdFYrQ/MYKqEgTPp5uqg/7O5yGBWY/ro3lk7u+V5t99Qe9HhVO+P0m7gZiIlqr0o153OahmL16t/DzADOkOAju//hqrHMZD2dFXscd+dkD0xYUAztWBuMmCxmpOY/oxjxZMn8bHcBvlTrL8HOszjIqYPDHSIDqc5UWAmfsCJQQtwUmBAHjowAAbkFSBvAfgBMCCvAHkLIKYPMX3yTyF5C+D3ABiQV4C8BeAHwIC8AuQtAD+Y9wz6arMuPCJ/l6ZtAbsfdFTxnUNPFqf6O+M34if5dF/x8MMvsWp81MEv6tAcjKho3IqRvupkQL8nXMC3P9Z0IMBFki30CQm++3640H7RRl/3/9rvvsHWSny+rTFp0r4Q9EvLWuUMjHRfc2kZnQysLETZKXs9thQcY3pHMP0lxl7mHtfqQd0XIvlUIi+lVbMNxVzSxli26mRA+QFCSKN3xN9ETepqEKrQ4/hWDxMYmHhmg7HUnnwdvRkg3MfGVpQtFUSI7uO9iKqJMHQnat2XkTU/n3JlWj1o9oVg9iKmnMHkVizso+wMFrY2xrp7YGAspadeBxhMrY2xzgADYyk99TrAYGptjHUGGBhL6anXAQZTa2OsM8DAWEpPvQ4wmFobY52BvArIqzDWs2bK68BeRJ4OMAAG5BUgbwH4ATAgrwB5C9j9QGdMH6Hhe+fy6p83J/KSW+nvuAq5Hp97X6+0a+5V1bWedPxU+QDX4vFa8+ijk8HkMf3R8pB1wog9dvnn39XIliYdi3P8gB8la75Av0jMNC3QLGqQQqdfKCros7tXm9MMkjoaDjgERMXvW6xumZAhdvtrZiuqE3+80WOP0H9FwIXHgzX0mM8zG9tiHD7gR80jBEgng8lj+v9O3biicnDk1eAw9RL9tcYYqib/uBfqt2gXNcC1QTTK6X9J9aDA7Q2e9f7cWn3AbwVumUC/jD+o/APViKleC3TIeoQZo15r/lDQyWDymP7b4QHFlSP7bELT++tlSzPUuoxjMK6owRQM2mSfu528/Qf2ITWDV90/PET1YoorZpDXkMWMUa+1ABlox/SfnxBYxx6Mc5fsV2IG1Q8O2VkGfn0LlzCYuqgBZoA6TwQ6ShP3R+1eba7yA8VxZ8uohBi3z1fha6M8JHHxQcvSbmgyyGotYcbQa80fAkjHXjSf7tR074V9LzJdu+eTZcCAPE1gAAzIK0DeAvADYEBeAfIWgB8AA/IKkLcAYvoQ0yf/FJK3AH4PgAF5BchbAH4ADMgrQN4C8ANgMHMF7pbOfA6yM7D7gR55FSrzNfpLqI5MUkYBNeWn3nlv2A3ryqIYLrQ3bELTG62TgSqvwsH+5C/H+Ys2+jofOzHW0qFFbh4s2WcnzKuKp/tLtJ8UrBXK411CCptOTFpGgVfSVsVf9w93aUnTeWYe3MTjVfXE7IoP1VkUsubzdKF3VTP5FrlXUN7hVG+zUtzFwvRUNcwinQxUeRXLiqmeHaf6NAsfHD3pz5Pfffd68O17VTF89HJA8fONC6IdlNYUv3FlFDADT3EPTrD4NLm6tvqE1CIw6QlrdkVKK90CAfdxwUlHjeO6WBh2x6Y3WicDdV6FquHDQK9sA1P4YHh4uOeHokwHF89bdbKlGcVooEFgY1mr/L3AgWEwvowCZoDn1JxnaAQhHdkVOGMDM6iOoBhodbEwPVUNs8hgBkhRwRQ+eFCXtFMolwn897V1nLWzW5F361a81WZJ9l7LTbySvknLKDBsNOfBvxFTZFeM3D9oZxkovPX0TsT6jaEJwbbbccJLi9zJN+2A1JfuYmHYHZveaHYGpmfvfLQIGJCnCgyAAXkFyFsAfgAMyCtA3gLwA2BAXgHyFoAfmACDgefkEwsWuA3gBybgB+RNWPAWgB+QfwSAATAgrwB5C8APTJ3BFDH94TuVKSXfvSBv/fywgN0P1B2lFQWaMX2hT0LGwZi12uUM2lFnXaQgKEG21yehsE9Rxbf4xCvUy9Ztx67AAE+XT8qol5Pnh2azfRc6GbDF9Iur4phyBvk1WX8SNeEMifN7eTlX6cA9Lg9/qg8pCmxdK2bb8vkzn04GbDF9XFICJz1gd8mvyeIxDI7cpAP3qhL9wID1gTGYARWLTziUHbU+qLy/TsowEPd31YULvBNk+wSpp58ogAGr7Fon2RloDYU/OFIAGHAkrAHTAgMDxOJoKDDgSFgDpgUGBojF0VBgwJGwBkwLDAwQi6OhwIAjYQ2YFhgYIBZHQ6FWAvmUBvADjh5uA6YFBgaIxdFQYMCRsAZMCwwMEIujocCAI2ENmBYYGCAWR0NNh8FQT9m3F59zdJsmPS07A1VeRX6wx18zW3GseJY/6reO8bTq/AFDl9BVTMHQ+Yw/XicDKp6sKHBbgYuyM9UNhipCmR4UaUssv5Rkx3t4ujfjfu8ukmyhT0jwXdzv3cxCEBHiwcvEbxTTVRXSe7oq9rgLkuOsA8rpDhVfCVOjPbw8mx9V8f1xQDRSEJy3X+guLx3CajDNLho7v2dWR4qKCEFChtiNKaaQdH2gO9fPRn4s1z0ysweXole/1H+ZLs1gfGX1X1EnAzv3tJRAxz07L/6mWd1gf8IWjR4UMceGEPol+8vAND+bk9cR/m4WUqMsdMBJFVSTisvlPnRVhaER9Lr/8a/XipOs9khx7wTVtZ+Hni51DMivyfrnrtzTNTXfCbfySv+ge1bQCz1K3cjUVjgQv1WrVUVKK1KWhKyJzqypbcr05KUf12Bwic7w0F8R44/UycBf2tN11tHK+daoZnWDd6/HelCkLo755p2Kgbeawd9ETa8K7XklAzSDktG3dFWFoOrvI7aln37y4Cw/QNpfz1z7eejpEooBT1SjVD593qXoe02poW52cSBuK1Oj4VHKRoqBRqsKZUkA/5vrA8+e9T7uen5Jo7DCJbaWO8bXe7IVdTMQ9SHUecB5S8aV9u+ZKgk/nghielCkLrNcLcqWCfy9rr7qzvWzFWVLBRGi+3gvYhhcakqmqyqIbt3K3rpHmBxksSoIM1Bdu3dfW6dqLwoXuGZmifhCqQLbyzS7ON52jlm989FYqwp1MYWX3bl+lgkH4z08va5qFla4PNcZTEZt/DHN39Xx5+BvfRRg9wN9ZgAG+qjENmbmDNhmh3P6KAAM9FGJ2zHAgFt99ZkdGOijErdjgAG3+uozOzDQRyVuxwADbvXVZ3bIq4C8Cn2ek/k+BvYi8oSBATAgrwB5C8APgAF5BchbwO4HXMf0yd+/KVigk4FGTP+EIxUXwwkQmsF3U7iNOW2DTgZjMX11bFL1Vj4TfJ/T928KxutkMBbTZxictcMJEEzw3RRuY07boJsBE9Ovv5NvZxkojvT4alUQXRmBDr7P6fs3BePZGZiChfPfBmBAnjEwAAbkFSBvAfgBMCCvAHkLwA+AAXkFyFsAfmACDBZ47wFTuH3wAxPwA/ImLHgLwA/IPwLAABiQV4C8BeAHwIC8AuQtYPeDCXkVk3afGL53Lq/+Afl7masW6GSgkVfRU8l0nxi9e3Dvdh+/AJfl1GvGsqVUJYUgcVx8uHV0NV0EYVOoxNM2NKVvrkpjNLt1MhjLq9ColbAnMdjSvg2hkTvfbKdLHmScSTen6xfcCNvi92ujbGlGyShSpwEY7Xbm5EI6GYzlVWjUSvi1fJenuAcXWzlrh0seyJZqMnAMfogZFCFgoNczoZsBk1dB1UpQdZ/491nvf+w5WnEgYN0KXPKA3ouEPpGxSSLHmMbfUDUw0Et+ahA7gynnef/0qVL59Gn/tYP/EmY9nXIYnNBHgekyuCC0cQiNCPH4f/K70PFJH6FZxkyTAcuMcMpQBYCBoYrN/nhgMPuaGjojMDBUsdkfDwxmX1NDZwQGhio2++OBwexrauiMUCsBaiUY+szMx/GwF5GnCgyAAXkFyFsAfgAMyCtA3gJ2PxjqOhjhmVeY6x4QfPf9lMber4y73IvP9tUezLr801s0VOT8Z1xtHCE01Htaln395ZTXwgmE2BncPLRaemAIob6fartHUIvcOyghMTrY7HA704Hgr5mtqE6MO7q3yHf7yvMzAjeXNlfttlrqlXikvbsuUuArPxLpIwepWRRgZ4Detl8qyUna6xMZ26Zs9N4d0I4Qule0TXg4aYt2B4LGRu9NO4421F/K8l2VW3ucqmzRkgr1FFikZ06xMhi+V3HqRxy67zxgHXDmex8nmsEpa0lJioV2B4LGRm/3sLaXA8renq7Xqs4HLalQT4ERmuULKwP06m6y/erk08XCIM+rw6hF7uQrSRcHbTumQIqKKA9JXHzQsrQbqH5sLzqc6v1R2o2RmsjFDtJTHV114QKvvP0ivpDFAjjFzgD0MYYCwMAYKrOvAQzY9THGWWBgDJXZ1wAG7PoY4ywwMIbK7GsAA3Z9jHEWGBhDZfY1gAG7PsY4CzF9iOkb4zkz9TVgLyJPCBgAA/IKkLcA/AAYkFeAvAXgBybO4F5pbFKc+wbzDaFy34rHMzRWlWxhpMIK3Vc8/PBbvUzOxwyt5/JynX7QUcVfZ9OMELqStsRyRfDRysN71wrl8S4h6T1dVXyLRV7ScEdX51ujo+Uh64QRe+zyG2qTt3smJod5uDWPoha5V5A8JcxpuTrZoqC9QXdhBUVFhCAhQ+yGkzYUFRGTlWA40nrcaUt+LRpo9N7k//3FCAF+cXotleTx6RoPp/j03RtsrcTnHzdI6ZwPr6C8w6neZqWmWLnBAAZ0+QP0ckDx840Loh28krYqPvW2PpXb0ivbsKJycOTV4NvhgSd3b/8gD+ClNKpSMUaGBpV/qAL9CPcdZy+s0CvbwCRtPErZOEUJhh+LrK3Dms/HrMw4k2b+aXJ1bfUJqUVgcVUcL/YmQrhRBvYDbJtWzgeXD/Q05zaMQTEaaBDYWNYqfy9woBgw99mKhgcUV47sswndn7iDd/wBuiTRYNDd1tqvrl0xjsEkhRXUDF51//Dw36kMg/Ejnxy02bbDkSe5+Sh147qLg0rl096uZ6iGSjAYz2As52OaOnF5mWEMitDw3XirzZLsvZabxjF4fkJgHXswzl1y/LDn30Plifyt9Cbg4pmYGeW+rLgPVUcsdpAWdar2IrbCChpJG8NdFVOOvH/AdrmVeQNCCjxGliRaH1TeX0dtPmjoTtS6LyNr+hsktBlOvmkHpL4fpd3gUsxpzq2TwTTnhcv0VwAY6K8VVyOBAVfK6j8vMNBfK65GAgOulNV/XmCgv1ZcjQQGXCmr/7zAQH+tuBoJDLhSVv95Ia8C8ir0f1rm70jYi8izBQbAgLwC5C0AP5ijDPpqsy48Im/7fLGA1Q/GxfSZ5gf0i/kaxRG01cCRsiLtQ/AXiwKsDPB16pg+jlUlZByMoePmmsUR1p/uGy60/9A6LJaKZGk3PxjpzvVzkWQLfUKC774fLrQ3sxBEhHjw6GA9E4hnMXABnNKXgUbzAypurh0ox8URjigQGhrX/OCjglOBNievI4R+yTYLqVEWOvBO9SF1WJ8JxC8Andlu0QAG2nHzCcURtBnQzQ80GfxN1DQutWJsQjYL5/85fRlQcXNV8wNV3Jwq1EIXR1AWOnxqFSbJjLULKf95VLP5QV93rp+tKFsqiBDdx3sRD9fUwT8YF3FnF1Ugfv7LzHqHOhmwXq0+qRZX/Tf8a4gCwMAQtbgZOzsMuLFtocwKDMiTBgbAgLwC5C0APwAG5BUgbwHv+eAb8lYsbAt4L/4Yetz/4l7XwK8K+I+MAvB7QN4HgQEwIK8AeQvAD4ABeQXIWwB+AAzIK0DeAvADYEBeAfIW/H+a/oxZ2JOG/wAAAABJRU5ErkJggg==;" vertex="1" parent="1">
          <mxGeometry x="440" y="150" width="49.14" height="240" as="geometry" />
        </mxCell>
        <mxCell id="JevtcrBScPYAY5YOZ9uz-15" value="Prospect&amp;nbsp;" style="whiteSpace=wrap;html=1;aspect=fixed;" vertex="1" parent="1">
          <mxGeometry x="710" y="90" width="80" height="80" as="geometry" />
        </mxCell>
      </root>
    </mxGraphModel>
  </diagram>
</mxfile>
